# xmcd
#
# Track frame offsets: 
#        150
#        13097
#        22212
#        34535
#        42957
#        59130
#        84312
#        98345
#        107005
#        121107
#        131400
#        143342
#        155875
#        167382
#        204737
#        222835
#        234010
#        249002
#        267322
#        283302
#        294925
#        308060
#        322625
#
# Disc length: 4553 seconds
#
# Revision: 6
# Processed by: cddbd v1.5.2PL0 Copyright (c) Steve Scherf et al.
# Submitted via: ExactAudioCopy v0.95b3
#
DISCID=2e11c717
DTITLE=Marty Robbins - The Essential Marty Robbins 1951-1982 [CD2]
DYEAR=1991
DGENRE=Country
TTITLE0=Devil Woman
TTITLE1=Ruby Ann
TTITLE2=Smokin's Cigarettes And Drinkin' Coffee Blues
TTITLE3=I'm Gonna Be A Cowboy
TTITLE4=(Ghost) Riders In The Sky
TTITLE5=San Angelo
TTITLE6=Man Walks Among Us
TTITLE7=Beautiful Dreamer
TTITLE8=Beyond The Reef
TTITLE9=The Hawaiian Wedding Song
TTITLE10=Yours (Quierme Mucho)
TTITLE11=Tonight Carmen
TTITLE12=Ribbon Of Darkness
TTITLE13=Feleena (From El Paso)
TTITLE14=Hello Heartache
TTITLE15=Begging To You
TTITLE16=I Walk Alone
TTITLE17=You Gave Me A Mountain
TTITLE18=My Woman, My Woman, My Wife
TTITLE19=Among My Souvenirs
TTITLE20=Return To Me
TTITLE21=Some Memories Just Won't Die
TTITLE22=El Paso City
EXTD=YEAR: 1991
EXTT0=
EXTT1=
EXTT2=
EXTT3=
EXTT4=
EXTT5=
EXTT6=
EXTT7=
EXTT8=
EXTT9=
EXTT10=
EXTT11=
EXTT12=
EXTT13=
EXTT14=
EXTT15=
EXTT16=
EXTT17=
EXTT18=
EXTT19=
EXTT20=
EXTT21=
EXTT22=
PLAYORDER=
